# xmcd CD database file
#
# Track frame offsets:
#	150
#	15239
#	30023
#	42787
#	55412
#	68245
#	81805
#	97859
#	111175
#	120391
#	135551
#	146573
#	155833
#	168236
#	185436
#	197302
#	211829
#	229760
#	245862
#	258391
#
# Disc length: 3615 seconds
#
# Revision: 0
# Processed by: cddbd v1.4PL0 Copyright (c) Steve Scherf et al.
# Submitted via: CDex 1.50Beta7
#
DISCID=010e1d14
DTITLE=Zlaty Orel - 20 let kapely
DYEAR=2002
DGENRE=Country
TTITLE0=Kdyz se vecer stmiva
TTITLE1=Vzpominej
TTITLE2=Stara Pacificka
TTITLE3=Bila hriva
TTITLE4=Lakani
TTITLE5=General Washington and Lee
TTITLE6=Hvezda nad kanonem
TTITLE7=Kluci,kruci
TTITLE8=Kopretin kytice
TTITLE9=Rikatado
TTITLE10=Vzpominka na Rabi
TTITLE11=Poplujeme spolu
TTITLE12=Druha kava
TTITLE13=Prijd,prijd
TTITLE14=Chata pod kanonem
TTITLE15=Naladu mej veselou
TTITLE16=Flam
TTITLE17=Vitr z hor
TTITLE18=Sedm zlutejch kaminku
TTITLE19=Kalifornie,tak ahoj
EXTD=YEAR: 2002
EXTT0=
EXTT1=
EXTT2=
EXTT3=
EXTT4=
EXTT5=
EXTT6=
EXTT7=
EXTT8=
EXTT9=
EXTT10=
EXTT11=
EXTT12=
EXTT13=
EXTT14=
EXTT15=
EXTT16=
EXTT17=
EXTT18=
EXTT19=
PLAYORDER=
